<?xml version="1.0" encoding="UTF-8"?>
<svg width="24px" height="14px" viewBox="0 0 24 14" version="1.1" xmlns="http://www.w3.org/2000/svg" xmlns:xlink="http://www.w3.org/1999/xlink">
    <!-- Generator: Sketch 52.2 (67145) - http://www.bohemiancoding.com/sketch -->
    <title>BottomBarSharingIconGroupTurnOnNormal</title>
    <desc>Created with Sketch.</desc>
    <defs>
        <rect id="path-1" x="0" y="0" width="29" height="14"></rect>
    </defs>
    <g id="BottomBarSharingIconGroupTurnOnNormal" stroke="none" stroke-width="1" fill="none" fill-rule="evenodd">
        <g id="ShowParticipants" transform="translate(-2.000000, 0.000000)">
            <mask id="mask-2" fill="white">
                <use xlink:href="#path-1"></use>
            </mask>
            <g id="Rectangle-1"></g>
            <path d="M23.884529,12.0322099 C23.6370329,11.9227839 23.4032719,11.8197947 23.2363375,11.7113985 C23.0823458,11.6112415 22.9381271,11.5301375 22.8052664,11.4552129 C22.2754081,11.1568017 22.0334589,11.020341 22.0334589,10.123305 C22.0334589,8.99995032 22.9774835,8.27464886 22.9862,8.26795457 L23.0355936,8.23087845 L23.0630638,8.17655165 C23.3794996,7.54548531 23.2247155,7.01354609 23.1193249,6.77383872 C23.8074011,5.28693212 22.974578,4.0567261 22.7978705,3.82165325 C22.3501588,2.56544246 21.3947763,2.29998779 20.6684003,2.29998779 C19.8070505,2.29998779 19.0418464,2.66817419 19.0296961,2.67486849 C18.2330597,2.9856384 17.6894664,3.48153141 17.4147642,4.14864397 C16.9710145,5.22591102 17.3735588,6.40899947 17.5196265,6.77229388 C17.1619853,7.61397313 17.5743028,8.18865288 17.5925282,8.21388523 L17.6479969,8.26924193 C17.6575058,8.27593623 18.5996815,8.9857893 18.5996815,10.123305 C18.5996815,11.225032 17.9800168,11.4266334 17.1952666,11.6815317 L17.0925174,11.7144882 C16.2100366,11.997451 14.373494,12.5862918 14.373494,14.5003461 L14.373494,14.7578191 L26,14.7578191 L25.9955097,14.4957116 C25.9669829,12.9508736 24.7633119,12.4199642 23.884529,12.0322099 L23.884529,12.0322099 Z" id="Path-3" fill="#727272" fill-rule="evenodd" mask="url(#mask-2)"></path>
            <path d="M11.7110472,12.0322099 C11.4635511,11.9227839 11.2297901,11.8197947 11.0628557,11.7113985 C10.908864,11.6112415 10.7646454,11.5301375 10.6317846,11.4552129 C10.1019263,11.1568017 9.8599771,11.020341 9.8599771,10.123305 C9.8599771,8.99995032 10.8040017,8.27464886 10.8127183,8.26795457 L10.8621118,8.23087845 L10.889582,8.17655165 C11.2060178,7.54548531 11.0512337,7.01354609 10.9458432,6.77383872 C11.6339193,5.28693212 10.8010962,4.0567261 10.6243888,3.82165325 C10.176677,2.56544246 9.22129451,2.29998779 8.49491853,2.29998779 C7.63356868,2.29998779 6.8683646,2.66817419 6.85621432,2.67486849 C6.05957797,2.9856384 5.5159846,3.48153141 5.24128241,4.14864397 C4.79753272,5.22591102 5.20007708,6.40899947 5.34614468,6.77229388 C4.98850356,7.61397313 5.40082099,8.18865288 5.41904642,8.21388523 L5.47451513,8.26924193 C5.48402405,8.27593623 6.42619973,8.9857893 6.42619973,10.123305 C6.42619973,11.225032 5.80653499,11.4266334 5.02178479,11.6815317 L4.91903561,11.7144882 C4.03655482,11.997451 2.20001221,12.5862918 2.20001221,14.5003461 L2.20001221,14.7578191 L13.8265182,14.7578191 L13.8220279,14.4957116 C13.7935011,12.9508736 12.5898301,12.4199642 11.7110472,12.0322099 L11.7110472,12.0322099 Z" id="Path-5" fill="#727272" fill-rule="evenodd" mask="url(#mask-2)"></path>
            <path d="M18.0416065,12.5946363 C17.7594866,12.4676428 17.4930233,12.3481196 17.3027354,12.2223213 C17.1272008,12.106085 16.9628065,12.0119604 16.811359,11.9250072 C16.2073755,11.5786886 15.9315784,11.4203203 15.9315784,10.3792728 C15.9315784,9.07557293 17.0076687,8.23383043 17.0176046,8.22606142 L17.0739081,8.18303305 L17.1052213,8.11998453 C17.4659253,7.38760581 17.2894875,6.77026821 17.1693532,6.49207784 C17.9536887,4.7664609 17.0043567,3.33875566 16.8029285,3.06594384 C16.2925835,1.60805897 15.2035464,1.29998779 14.3755531,1.29998779 C13.3937035,1.29998779 12.5214502,1.72728342 12.5076001,1.73505243 C11.5995172,2.09571384 10.9798771,2.6712183 10.6667451,3.44543016 C10.1609164,4.69564337 10.6197753,6.06866672 10.7862772,6.490285 C10.3786034,7.46708877 10.8486025,8.13402851 10.8693776,8.16331171 L10.9326062,8.22755546 C10.9434454,8.23532447 12.017428,9.05913848 12.017428,10.3792728 C12.017428,11.6578728 11.3110744,11.8918395 10.4165405,12.1876596 L10.2994171,12.225907 C9.29348048,12.5542972 7.20001221,13.2376714 7.20001221,15.459011 L7.20001221,15.7578191 L20.4530243,15.7578191 L20.4479058,15.4536324 C20.4153882,13.6607837 19.0433279,13.0446413 18.0416065,12.5946363 L18.0416065,12.5946363 Z" id="Path-4" fill="#5E5E5E" fill-rule="evenodd" mask="url(#mask-2)"></path>
        </g>
    </g>
</svg>