<?xml version="1.0" encoding="UTF-8"?>
<svg width="24px" height="14px" viewBox="0 0 24 14" version="1.1" xmlns="http://www.w3.org/2000/svg" xmlns:xlink="http://www.w3.org/1999/xlink">
    <!-- Generator: Sketch 52.2 (67145) - http://www.bohemiancoding.com/sketch -->
    <title>BottomBarSharingIconAnnounceTurnOffNormalReadWrite</title>
    <desc>Created with Sketch.</desc>
    <defs>
        <rect id="path-1" x="0" y="0" width="29" height="14"></rect>
        <polygon id="path-3" points="-0.337890625 9.74462891 7.53564453 0.334472656 14.1333008 9.71728516 0.177734375 11.4545898"></polygon>
    </defs>
    <g id="BottomBarSharingIconAnnounceTurnOffNormalReadWrite" stroke="none" stroke-width="1" fill="none" fill-rule="evenodd">
        <g id="Announce-On" transform="translate(-5.000000, 0.000000)">
            <mask id="mask-2" fill="white">
                <use xlink:href="#path-1"></use>
            </mask>
            <g id="Rectangle-1"></g>
            <g id="Announce" mask="url(#mask-2)">
                <g transform="translate(11.000000, 0.000000)">
                    <circle id="Oval-1" fill="#363636" cx="2" cy="11" r="2"></circle>
                    <g id="Path-10-+-Oval-2" stroke-width="1" fill="none" transform="translate(3.000000, 0.000000)">
                        <mask id="mask-4" fill="white">
                            <use xlink:href="#path-3"></use>
                        </mask>
                        <g id="Path-10"></g>
                        <path d="M-1,22.0332031 C-7.09346983,22.0332031 -12.0332031,17.0934698 -12.0332031,11 C-12.0332031,4.90653017 -7.09346983,-0.033203125 -1,-0.033203125 C5.09346983,-0.033203125 10.0332031,4.90653017 10.0332031,11 C10.0332031,17.0934698 5.09346983,22.0332031 -1,22.0332031 Z M-1,20.6269531 C4.3168194,20.6269531 8.62695312,16.3168194 8.62695312,11 C8.62695312,5.6831806 4.3168194,1.37304688 -1,1.37304688 C-6.3168194,1.37304688 -10.6269531,5.6831806 -10.6269531,11 C-10.6269531,16.3168194 -6.3168194,20.6269531 -1,20.6269531 Z M-1,19.0703125 C-5.45711052,19.0703125 -9.0703125,15.4571105 -9.0703125,11 C-9.0703125,6.54288948 -5.45711052,2.9296875 -1,2.9296875 C3.45711052,2.9296875 7.0703125,6.54288948 7.0703125,11 C7.0703125,15.4571105 3.45711052,19.0703125 -1,19.0703125 Z M-1,17.6640625 C2.68046009,17.6640625 5.6640625,14.6804601 5.6640625,11 C5.6640625,7.31953991 2.68046009,4.3359375 -1,4.3359375 C-4.68046009,4.3359375 -7.6640625,7.31953991 -7.6640625,11 C-7.6640625,14.6804601 -4.68046009,17.6640625 -1,17.6640625 Z M-1,16.09375 C-3.81320044,16.09375 -6.09375,13.8132004 -6.09375,11 C-6.09375,8.18679956 -3.81320044,5.90625 -1,5.90625 C1.81320044,5.90625 4.09375,8.18679956 4.09375,11 C4.09375,13.8132004 1.81320044,16.09375 -1,16.09375 Z M-1,15 C1.209139,15 3,13.209139 3,11 C3,8.790861 1.209139,7 -1,7 C-3.209139,7 -5,8.790861 -5,11 C-5,13.209139 -3.209139,15 -1,15 Z" id="Oval-2" fill="#4415E8" mask="url(#mask-4)"></path>
                    </g>
                </g>
            </g>
        </g>
    </g>
</svg>