<?xml version="1.0" encoding="UTF-8"?>
<svg width="24px" height="14px" viewBox="0 0 24 14" version="1.1" xmlns="http://www.w3.org/2000/svg" xmlns:xlink="http://www.w3.org/1999/xlink">
    <!-- Generator: Sketch 52.2 (67145) - http://www.bohemiancoding.com/sketch -->
    <title>BottomBarSharingIconAddPressed</title>
    <desc>Created with Sketch.</desc>
    <defs>
        <rect id="path-1" x="0" y="0" width="29" height="14"></rect>
    </defs>
    <g id="BottomBarSharingIconAddPressed" stroke="none" stroke-width="1" fill="none" fill-rule="evenodd">
        <g id="AddParticipant" transform="translate(-2.000000, 0.000000)">
            <mask id="mask-2" fill="white">
                <use xlink:href="#path-1"></use>
            </mask>
            <g id="Rectangle-1"></g>
            <path d="M13.0416065,12.5946363 C12.7594866,12.4676428 12.4930233,12.3481196 12.3027354,12.2223213 C12.1272008,12.106085 11.9628065,12.0119604 11.811359,11.9250072 C11.2073755,11.5786886 10.9315784,11.4203203 10.9315784,10.3792728 C10.9315784,9.07557293 12.0076687,8.23383043 12.0176046,8.22606142 L12.0739081,8.18303305 L12.1052213,8.11998453 C12.4659253,7.38760581 12.2894875,6.77026821 12.1693532,6.49207784 C12.9536887,4.7664609 12.0043567,3.33875566 11.8029285,3.06594384 C11.2925835,1.60805897 10.2035464,1.29998779 9.37555309,1.29998779 C8.39370353,1.29998779 7.52145017,1.72728342 7.5076001,1.73505243 C6.59951722,2.09571384 5.97987711,2.6712183 5.66674508,3.44543016 C5.16091641,4.69564337 5.61977527,6.06866672 5.78627721,6.490285 C5.37860339,7.46708877 5.84860252,8.13402851 5.86937763,8.16331171 L5.93260621,8.22755546 C5.9434454,8.23532447 7.01742804,9.05913848 7.01742804,10.3792728 C7.01742804,11.6578728 6.31107444,11.8918395 5.41654054,12.1876596 L5.29941712,12.225907 C4.29348048,12.5542972 2.20001221,13.2376714 2.20001221,15.459011 L2.20001221,15.7578191 L15.4530243,15.7578191 L15.4479058,15.4536324 C15.4153882,13.6607837 14.0433279,13.0446413 13.0416065,12.5946363 L13.0416065,12.5946363 Z" id="Path-2" fill="#222222" mask="url(#mask-2)"></path>
            <polygon id="Rectangle-1" fill="#000000" mask="url(#mask-2)" points="17.0053711 7.90488145 17.0053711 6.12133804 20.1579591 6.12133804 20.1579591 2.99340841 21.9929199 2.99340841 21.9929199 6.1213381 25.0093694 6.12133786 25.0093691 7.90488122 21.9929197 7.90488145 21.9929199 10.9697268 20.1579591 10.9697268 20.157959 7.90488145"></polygon>
        </g>
    </g>
</svg>