<?xml version="1.0" encoding="UTF-8"?>
<svg width="13px" height="13px" viewBox="0 0 13 13" version="1.1" xmlns="http://www.w3.org/2000/svg" xmlns:xlink="http://www.w3.org/1999/xlink">
    <!-- Generator: Sketch 52.2 (67145) - http://www.bohemiancoding.com/sketch -->
    <title>hud_titlebar-close</title>
    <desc>Created with Sketch.</desc>
    <g id="hud_titlebar-close" stroke="none" stroke-width="1" fill="none" fill-rule="evenodd">
        <path d="M6.51231055,5.45165038 L3.86066012,2.79999995 L2.79999995,3.86066012 L5.45165038,6.51231055 L2.79999995,9.16396098 L3.86066012,10.2246212 L6.51231055,7.57297073 L9.16396098,10.2246212 L10.2246212,9.16396098 L7.57297073,6.51231055 L10.2246212,3.86066012 L9.16396098,2.79999995 L6.51231055,5.45165038 Z M6.50000001,12.7 C3.07583456,12.7 0.300000012,9.92416546 0.300000012,6.50000001 C0.300000012,3.07583456 3.07583456,0.300000012 6.50000001,0.300000012 C9.92416546,0.300000012 12.7,3.07583456 12.7,6.50000001 C12.7,9.92416546 9.92416546,12.7 6.50000001,12.7 Z" id="Oval-1" fill-opacity="0.85" fill="#FFFFFF"></path>
        <path d="M6.51231055,5.45165038 L9.16396098,2.79999995 L10.2246212,3.86066012 L7.57297073,6.51231055 L10.2246212,9.16396098 L9.16396098,10.2246212 L6.51231055,7.57297073 L3.86066012,10.2246212 L2.79999995,9.16396098 L5.45165038,6.51231055 L2.79999995,3.86066012 L3.86066012,2.79999995 L6.51231055,5.45165038 Z" id="Oval-2" fill-opacity="0.400000036" fill="#000000"></path>
    </g>
</svg>