<?xml version="1.0" encoding="UTF-8"?>
<svg width="46px" height="46px" viewBox="0 0 46 46" version="1.1" xmlns="http://www.w3.org/2000/svg" xmlns:xlink="http://www.w3.org/1999/xlink">
    <!-- Generator: Sketch 52.2 (67145) - http://www.bohemiancoding.com/sketch -->
    <title>ParticipantReadOnlyTurnOnHover</title>
    <desc>Created with Sketch.</desc>
    <g id="ParticipantReadOnlyTurnOnHover" stroke="none" stroke-width="1" fill="none" fill-rule="evenodd">
        <g id="InactiveCircleHover" transform="translate(2.000000, 0.000000)" fill="#434343" fill-opacity="0.634199502" stroke="#FFFFFF" stroke-width="2">
            <circle id="Oval-1" cx="21" cy="21" r="20"></circle>
        </g>
        <g id="ReadOnlyTurnOn" transform="translate(12.000000, 9.000000)" fill="#FFFFFF">
            <path d="M2.20492958,15.5994584 L6.26255002,11.541838 L11.8931011,17.172389 L7.83548067,21.2303748 C7.78762792,21.2782275 7.7237025,21.3063547 7.65502833,21.3216968 L7.65648949,21.3286373 L1.08130333,22.7897897 L1.07984217,22.7828493 C1.05390672,22.7883286 1.0297977,22.7981914 1.00203581,22.7981914 C0.800396763,22.7981914 0.636747685,22.6349076 0.636747685,22.4329033 C0.636747685,22.4055066 0.644784024,22.3806671 0.650628634,22.3550969 L0.6455146,22.354001 L2.10666708,15.7788149 L2.11360755,15.780276 C2.12894966,15.7123324 2.16511318,15.6538863 2.21113948,15.6056683 L2.20492958,15.5994584 Z M6.41450988,18.8673259 C6.41450988,18.7361875 6.29761768,18.6295233 6.15296359,18.6295233 L5.1071437,18.6295233 C4.92084676,18.6306192 4.77290507,18.5250509 4.8455974,18.3917208 L4.8455974,17.4408758 C4.8455974,17.3097374 4.72833992,17.2034385 4.58405111,17.2034385 L3.4344894,17.2034385 C3.31211788,17.2034385 3.20581903,17.2805143 3.17951829,17.3893702 L2.40291575,20.5666462 C2.3612729,20.7365052 2.52784428,20.8880998 2.7148718,20.8504751 L6.20958324,20.1443732 C6.32939775,20.1198989 6.41450988,20.0234628 6.41450988,19.9120499 L6.41450988,18.8673259 Z M17.7991632,0.522107457 C17.7330461,0.456355595 17.641724,0.415078037 17.5405392,0.415078037 C17.4397197,0.415078037 17.3483977,0.456355595 17.2822805,0.522107457 L12.0880812,5.7163068 L17.7186323,11.3468579 L22.9128316,6.15265854 C22.9789488,6.08690668 23.019861,5.99558465 23.019861,5.89439984 C23.019861,5.79358032 22.9789488,5.70225829 22.9128316,5.63614114 L17.7991632,0.522107457 Z" id="Fill-1"></path>
            <path d="M0.344043154,1.57345352 C0.00504911309,1.23445948 0.00504911309,0.68495057 0.344043154,0.345956528 L0.832376282,-0.142376599 C1.17137032,-0.48137064 1.72087923,-0.48137064 2.06030732,-0.142376599 L23.2472179,21.0445339 C23.5862119,21.383528 23.5862119,21.9334709 23.2472179,22.272465 L22.7584507,22.7607981 C22.4194566,23.0997922 21.8699477,23.0997922 21.5309537,22.7607981 L0.344043154,1.57345352 Z" id="Fill-1"></path>
        </g>
    </g>
</svg>