<?xml version="1.0" encoding="UTF-8"?>
<svg width="46px" height="46px" viewBox="0 0 46 46" version="1.1" xmlns="http://www.w3.org/2000/svg" xmlns:xlink="http://www.w3.org/1999/xlink">
    <!-- Generator: Sketch 52.2 (67145) - http://www.bohemiancoding.com/sketch -->
    <title>ParticipantReadOnlyTurnOffHover</title>
    <desc>Created with Sketch.</desc>
    <g id="ParticipantReadOnlyTurnOffHover" stroke="none" stroke-width="1" fill="none" fill-rule="evenodd">
        <g id="InactiveCircleHover" transform="translate(2.000000, 0.000000)" fill="#434343" fill-opacity="0.634199502" stroke="#FFFFFF" stroke-width="2">
            <circle id="Oval-1" cx="21" cy="21" r="20"></circle>
        </g>
        <g id="ReadOnlyTurnOff" transform="translate(13.000000, 9.000000)" fill="#FFFFFF">
            <path d="M1.20492958,15.5994584 L16.558065,0.341547054 L22.1886161,5.97209814 L6.83548067,21.2303748 C6.78762792,21.2782275 6.7237025,21.3063547 6.65648949,21.3286373 L0.0798421747,22.7828493 C0.0539067182,22.7883286 0.0297977023,22.7981914 0.00203580519,22.7981914 C-0.199603237,22.7981914 -0.363252315,22.6349076 -0.363252315,22.4329033 C-0.363252315,22.4055066 -0.355215976,22.3806671 -0.3544854,22.354001 L1.11360755,15.780276 C1.12894966,15.7123324 1.16511318,15.6538863 1.20492958,15.5994584 Z M5.41450988,18.8673259 C5.41450988,18.7361875 5.29761768,18.6295233 5.15296359,18.6295233 L4.1071437,18.6295233 C3.92084676,18.6306192 3.77290507,18.5250509 3.8455974,18.3917208 L3.8455974,17.4408758 C3.8455974,17.3097374 3.72833992,17.2034385 3.58405111,17.2034385 L2.4344894,17.2034385 C2.31211788,17.2034385 2.20581903,17.2805143 2.17951829,17.3893702 L1.40291575,20.5666462 C1.3612729,20.7365052 1.52784428,20.8880998 1.7148718,20.8504751 L5.20958324,20.1443732 C5.32939775,20.1198989 5.41450988,20.0234628 5.41450988,19.9120499 L5.41450988,18.8673259 Z" id="Fill-2"></path>
        </g>
    </g>
</svg>