<?xml version="1.0" encoding="UTF-8"?>
<svg width="46px" height="46px" viewBox="0 0 46 46" version="1.1" xmlns="http://www.w3.org/2000/svg" xmlns:xlink="http://www.w3.org/1999/xlink">
    <!-- Generator: Sketch 52.2 (67145) - http://www.bohemiancoding.com/sketch -->
    <title>ParticipantFollowTurnOffPressed</title>
    <desc>Created with Sketch.</desc>
    <g id="ParticipantFollowTurnOffPressed" stroke="none" stroke-width="1" fill="none" fill-rule="evenodd">
        <g id="InactiveCirclePressed" transform="translate(2.000000, 0.000000)" fill="#000000" fill-opacity="0.604199529" stroke="#FFFFFF" stroke-width="2">
            <circle id="Oval-1" cx="21" cy="21" r="20"></circle>
        </g>
        <g id="FollowBinocularsTurnOff" transform="translate(1.000000, 0.000000)" fill="#FFFFFF">
            <path d="M17.7607639,9.66365701 L18.2429601,10.1382998 C18.1475686,10.0078941 17.9907069,9.82780547 17.7607683,9.66366133 Z M21.6887713,13.5301338 L22.9194336,13.5301338 L24.2700203,12.8872768 L24.2700203,10.3228585 C24.2700203,10.3228585 24.877634,9.24750631 26.2319344,9.24750631 C27.5862348,9.24750631 27.7968758,9.9435687 27.7968758,9.9435687 L28.1125134,11.9510323 L29.5940988,12.8872767 C29.5940988,12.8872767 33.3994925,20.1365442 34.6892443,24.9481031 C34.8441984,25.5261761 34.9763626,26.099903 35.006043,26.638796 L21.6887713,13.5301338 Z M18.3887051,26.5979262 C18.4328632,27.0623343 18.4228762,27.5508492 17.9906529,28.151995 C17.9770267,29.3416574 15.319433,30.6154434 12.7314453,30.6154434 C10.1434577,30.6154434 8.69656827,28.9411209 8.25927734,28.151995 C7.87841797,27.4647042 7.82513073,26.3601514 8.25927734,24.9481031 C8.80371442,23.1773384 9.69245897,20.957398 10.5749174,18.9063855 L18.3887051,26.5979262 Z M13.1428571,29.2857143 C14.9969559,29.2857143 16.5,28.0012343 16.5,26.416748 C16.5,24.8322617 14.9969559,23.5477818 13.1428571,23.5477818 C11.2887583,23.5477818 9.78571429,24.8322617 9.78571429,26.416748 C9.78571429,28.0012343 11.2887583,29.2857143 13.1428571,29.2857143 Z" id="Path-60"></path>
            <path d="M9.55424572,11.5734535 C9.21525168,11.2344595 9.21525168,10.6849506 9.55424572,10.3459565 L10.0425788,9.8576234 C10.3815729,9.51862936 10.9310818,9.51862936 11.2705099,9.8576234 L32.4574204,31.0445339 C32.7964145,31.383528 32.7964145,31.9334709 32.4574204,32.272465 L31.9686533,32.7607981 C31.6296592,33.0997922 31.0801503,33.0997922 30.7411563,32.7607981 L9.55424572,11.5734535 Z" id="Fill-1"></path>
        </g>
    </g>
</svg>