<?xml version="1.0" encoding="UTF-8"?>
<svg width="46px" height="46px" viewBox="0 0 46 46" version="1.1" xmlns="http://www.w3.org/2000/svg" xmlns:xlink="http://www.w3.org/1999/xlink">
    <!-- Generator: Sketch 52.2 (67145) - http://www.bohemiancoding.com/sketch -->
    <title>ParticipantFollowTurnOnNormal</title>
    <desc>Created with Sketch.</desc>
    <g id="ParticipantFollowTurnOnNormal" stroke="none" stroke-width="1" fill="none" fill-rule="evenodd">
        <g id="InactivCircle" transform="translate(2.000000, 0.000000)" fill="#6E6E6E" fill-opacity="0.634199502" stroke="#FFFFFF" stroke-width="2">
            <circle id="Oval-1" cx="21" cy="21" r="20"></circle>
        </g>
        <g id="FollowBinoculars" transform="translate(9.000000, 9.000000)" fill="#FFFFFF">
            <path d="M6.68383774,2.95103233 L6.9528807,0.943568701 C6.9528807,0.943568701 6.9528807,0.247506315 8.39184555,0.247506315 C9.83081039,0.247506315 10.3601073,1.32285851 10.3601073,1.32285851 L10.3601074,3.88727675 L11.8620954,4.53013393 L14.9194336,4.5301338 L16.2700203,3.88727682 L16.2700203,1.32285851 C16.2700203,1.32285851 16.877634,0.247506315 18.2319344,0.247506315 C19.5862348,0.247506315 19.7968758,0.943568701 19.7968758,0.943568701 L20.1125134,2.95103233 L21.5940988,3.88727665 C21.5940988,3.88727665 25.3994925,11.1365442 26.6892443,15.9481031 C27.0028753,17.1181376 27.2231436,18.2703678 26.6892439,19.151995 C26.1553441,20.0336222 24.0090933,21.6154434 21.5940981,21.6154434 C19.1791029,21.6154434 16.848005,19.7741351 17.027553,19.151995 C16.5195312,18.3289621 16.95225,17.7693801 16.6570006,16.5189029 C16.2638343,14.8537161 15.5622907,12.4038783 15.5622907,12.4038783 L11.3378906,12.4038783 C11.3378906,12.4038783 10.7546766,14.4916906 10.3601074,16.5189029 C10.1940741,17.3719468 10.7583008,18.0843331 9.9906529,19.151995 C9.97702667,20.3416574 7.31943299,21.6154434 4.73144533,21.6154434 C2.14345767,21.6154434 0.696568273,19.9411209 0.259277344,19.151995 C-0.121582031,18.4647042 -0.174869268,17.3601514 0.259277343,15.9481031 C1.65776725,11.3995582 5.32805525,3.88727665 5.32805525,3.88727665 L6.68383774,2.95103233 Z M5.14285714,20.2857143 C6.99695595,20.2857143 8.5,19.0012343 8.5,17.416748 C8.5,15.8322617 6.99695595,14.5477818 5.14285714,14.5477818 C3.28875834,14.5477818 1.78571429,15.8322617 1.78571429,17.416748 C1.78571429,19.0012343 3.28875834,20.2857143 5.14285714,20.2857143 Z M21.8571429,20.2857143 C23.7901395,20.2857143 25.3571429,19.0012343 25.3571429,17.416748 C25.3571429,15.8322617 23.7901395,14.5477818 21.8571429,14.5477818 C19.9241462,14.5477818 18.3571429,15.8322617 18.3571429,17.416748 C18.3571429,19.0012343 19.9241462,20.2857143 21.8571429,20.2857143 Z" id="Path-60"></path>
        </g>
    </g>
</svg>