<?xml version="1.0" encoding="UTF-8"?>
<svg width="32px" height="32px" viewBox="0 0 32 32" version="1.1" xmlns="http://www.w3.org/2000/svg" xmlns:xlink="http://www.w3.org/1999/xlink">
    <!-- Generator: Sketch 52.2 (67145) - http://www.bohemiancoding.com/sketch -->
    <title>StatusPending</title>
    <desc>Created with Sketch.</desc>
    <g id="StatusPending" stroke="none" stroke-width="1" fill="none" fill-rule="evenodd">
        <path d="M10.0049345,0 L21.9950655,0 C26.4253403,0 30,3.57832179 30,7.99240541 L30,24.0075946 C30,28.4223393 26.4160688,32 21.9950655,32 L10.0049345,32 C5.57465974,32 2,28.4216782 2,24.0075946 L2,7.99240541 C2,3.57766074 5.58393124,0 10.0049345,0 Z M14,22 L14,26 L18,26 L18,22 L14,22 Z M13.9813492,19.2539949 L18.182702,19.2539949 L18.182702,18.4145609 C18.182702,17.5334483 18.3277847,16.8333669 18.6179544,16.3142957 C18.9081242,15.7952244 19.5184721,15.1518474 20.4490165,14.3841454 L21.2664073,13.5181439 C22.246981,12.7068224 22.4572633,12.1312157 22.8024652,11.5772489 C23.1476672,11.0232821 23.3202655,10.3624576 23.3202655,9.59475558 C23.3202655,8.23382927 22.2199233,6.41912861 21.0192209,5.62089298 C19.8185185,4.82265736 17.5581438,4.31864086 15.5169537,4.32354553 C13.9813493,4.32723535 11.8112793,5.28393554 10.6633883,5.78445705 L10.7765372,8.93302429 C12.497544,8.28745668 13.3164205,7.98255874 14.2965797,7.85765055 C15.4611247,7.70924485 16.6846461,7.66338668 17.37505,8.11702878 C18.0654539,8.57067088 18.6369485,9.07866847 18.6369485,9.85509438 C18.6369485,10.8583413 18.1515007,11.6240138 16.5805817,13.1943134 L15.6350333,14.1495742 C14.1641728,15.6151872 13.9813492,16.8811013 13.9813492,18.5473637 L13.9813492,19.2539949 Z" id="Rectangle-3" fill="#3E3E3E"></path>
    </g>
</svg>