<?xml version="1.0" encoding="UTF-8"?>
<svg width="32px" height="32px" viewBox="0 0 32 32" version="1.1" xmlns="http://www.w3.org/2000/svg" xmlns:xlink="http://www.w3.org/1999/xlink">
    <!-- Generator: Sketch 52.2 (67145) - http://www.bohemiancoding.com/sketch -->
    <title>StatusReadWrite</title>
    <desc>Created with Sketch.</desc>
    <g id="StatusReadWrite" stroke="none" stroke-width="1" fill="none" fill-rule="evenodd">
        <g id="Path-1" transform="translate(2.928745, 1.880685)" fill="#3E3E3E">
            <path d="M21.1239649,-0.173446557 C21.1239649,-0.173446557 21.7291921,-0.668705289 24.9532776,2.38901505 C28.1773632,5.4467354 27.8244793,6.32395277 27.8244793,6.32395277 L8.64265942,25.0014084 L-0.253323225,28.8195148 L2.47503677,19.67135 L21.1239649,-0.173446557 Z M5.70485122,22.0464838 C4.78866109,21.1398835 3.58446706,20.6906338 3.58446706,20.6906338 L2.04313198,24.8182625 C2.04313198,24.8182625 2.77084745,24.8888421 3.01785698,25.0994042 C3.24567642,25.2936078 3.46761889,26.0325596 3.46761889,26.0325596 L7.18205676,24.2505674 C7.18205676,24.2505674 6.62104136,22.9530841 5.70485122,22.0464838 Z M21.4539699,1.33804891 L4.52250493,19.4012527 L5.69269865,20.1686396 L22.5094264,2.13362088 L21.4539699,1.33804891 Z"></path>
        </g>
    </g>
</svg>